<svg xmlns="http://www.w3.org/2000/svg" viewBox="0 0 1144.71 306.03"><defs><style>.cls-1,.cls-24{fill:#ff4343;}.cls-1,.cls-22,.cls-4{opacity:0.4;}.cls-10,.cls-11,.cls-12,.cls-13,.cls-14,.cls-15,.cls-16,.cls-17,.cls-18,.cls-19,.cls-2,.cls-20,.cls-21,.cls-25,.cls-3,.cls-5,.cls-6,.cls-7,.cls-8,.cls-9{fill:none;stroke-miterlimit:10;stroke-width:1.5px;}.cls-11,.cls-12,.cls-15,.cls-17,.cls-18,.cls-2,.cls-25,.cls-3,.cls-7,.cls-9{stroke:#ff3e3e;stroke-linecap:square;}.cls-3{stroke-dasharray:4.8 4.8;}.cls-23,.cls-4{fill:#337dff;}.cls-10,.cls-13,.cls-14,.cls-16,.cls-19,.cls-20,.cls-21,.cls-5,.cls-6,.cls-8{stroke:#337dff;}.cls-6{stroke-dasharray:5.63 5.63;}.cls-7{stroke-dasharray:5.08 5.08;}.cls-8{stroke-dasharray:5.35 5.35;}.cls-9{stroke-dasharray:5.05 5.05;}.cls-10{stroke-dasharray:5.23 5.23;}.cls-11{stroke-dasharray:4.98 4.98;}.cls-12{stroke-dasharray:4.98 4.98;}.cls-13{stroke-dasharray:4.91 4.91;}.cls-14{stroke-dasharray:4.91 4.91;}.cls-15{stroke-dasharray:5.07 5.07;}.cls-16{stroke-dasharray:6.21 6.21;}.cls-17{stroke-dasharray:5.46 5.46;}.cls-18{stroke-dasharray:5.46 5.46;}.cls-19{stroke-dasharray:2.77 2.77;}.cls-20{stroke-dasharray:2.77 2.77;}.cls-21,.cls-25{stroke-dasharray:5;}</style></defs><title>p_f</title><g id="Layer_1" data-name="Layer 1"><rect class="cls-1" x="0.75" y="132.49" width="72.29" height="72.29"/><polyline class="cls-2" points="0.75 245.34 0.75 247.84 3.25 247.84"/><line class="cls-3" x1="8.05" y1="247.84" x2="111.2" y2="247.84"/><polyline class="cls-2" points="113.6 247.84 116.1 247.84 116.1 245.34"/><line class="cls-3" x1="116.1" y1="240.54" x2="116.1" y2="137.39"/><polyline class="cls-2" points="116.1 134.99 116.1 132.49 113.6 132.49"/><line class="cls-3" x1="108.8" y1="132.49" x2="5.65" y2="132.49"/><polyline class="cls-2" points="3.25 132.49 0.75 132.49 0.75 134.99"/><line class="cls-3" x1="0.75" y1="139.79" x2="0.75" y2="242.94"/><rect class="cls-4" x="0.75" y="41.64" width="45.64" height="45.64"/><polyline class="cls-5" points="0.75 84.78 0.75 87.28 3.25 87.28"/><line class="cls-6" x1="8.88" y1="87.28" x2="28.59" y2="87.28"/><polyline class="cls-5" points="31.41 87.28 33.91 87.28 33.91 84.78"/><line class="cls-6" x1="33.91" y1="79.15" x2="33.91" y2="59.44"/><polyline class="cls-5" points="33.91 56.62 33.91 54.12 31.41 54.12"/><line class="cls-6" x1="25.78" y1="54.12" x2="6.07" y2="54.12"/><polyline class="cls-5" points="3.25 54.12 0.75 54.12 0.75 56.62"/><line class="cls-6" x1="0.75" y1="62.25" x2="0.75" y2="81.96"/><rect class="cls-1" x="205.28" y="132.49" width="149.03" height="149.03"/><polyline class="cls-2" points="205.28 302.78 205.28 305.28 207.78 305.28"/><line class="cls-7" x1="212.86" y1="305.28" x2="373.03" y2="305.28"/><polyline class="cls-2" points="375.57 305.28 378.07 305.28 378.07 302.78"/><line class="cls-7" x1="378.07" y1="297.7" x2="378.07" y2="137.53"/><polyline class="cls-2" points="378.07 134.99 378.07 132.49 375.57 132.49"/><line class="cls-7" x1="370.48" y1="132.49" x2="210.32" y2="132.49"/><polyline class="cls-2" points="207.78 132.49 205.28 132.49 205.28 134.99"/><line class="cls-7" x1="205.28" y1="140.07" x2="205.28" y2="300.24"/><rect class="cls-4" x="205.28" y="6.19" width="81.09" height="81.09"/><polyline class="cls-5" points="205.28 84.78 205.28 87.28 207.78 87.28"/><line class="cls-8" x1="213.13" y1="87.28" x2="253.23" y2="87.28"/><polyline class="cls-5" points="255.91 87.28 258.41 87.28 258.41 84.78"/><line class="cls-8" x1="258.41" y1="79.43" x2="258.41" y2="39.32"/><polyline class="cls-5" points="258.41 36.65 258.41 34.15 255.91 34.15"/><line class="cls-8" x1="250.56" y1="34.15" x2="210.45" y2="34.15"/><polyline class="cls-5" points="207.78 34.15 205.28 34.15 205.28 36.65"/><line class="cls-8" x1="205.28" y1="42" x2="205.28" y2="82.11"/><rect class="cls-1" x="467.25" y="132.49" width="152.22" height="152.22"/><polyline class="cls-2" points="467.25 261.29 467.25 263.79 469.75 263.79"/><line class="cls-9" x1="474.8" y1="263.79" x2="593.52" y2="263.79"/><polyline class="cls-2" points="596.04 263.79 598.54 263.79 598.54 261.29"/><line class="cls-9" x1="598.54" y1="256.24" x2="598.54" y2="137.52"/><polyline class="cls-2" points="598.54 134.99 598.54 132.49 596.04 132.49"/><line class="cls-9" x1="590.99" y1="132.49" x2="472.27" y2="132.49"/><polyline class="cls-2" points="469.75 132.49 467.25 132.49 467.25 134.99"/><line class="cls-9" x1="467.24" y1="140.04" x2="467.24" y2="258.76"/><rect class="cls-4" x="467.25" width="87.28" height="87.28"/><polyline class="cls-5" points="467.25 84.78 467.25 87.28 469.75 87.28"/><line class="cls-10" x1="474.97" y1="87.28" x2="514.19" y2="87.28"/><polyline class="cls-5" points="516.8 87.28 519.3 87.28 519.3 84.78"/><line class="cls-10" x1="519.3" y1="79.55" x2="519.3" y2="40.33"/><polyline class="cls-5" points="519.3 37.72 519.3 35.22 516.8 35.22"/><line class="cls-10" x1="511.58" y1="35.22" x2="472.36" y2="35.22"/><polyline class="cls-5" points="469.75 35.22 467.25 35.22 467.25 37.72"/><line class="cls-10" x1="467.24" y1="42.95" x2="467.24" y2="82.17"/><rect class="cls-1" x="708.64" y="132.49" width="114.47" height="114.47"/><polyline class="cls-2" points="708.64 219.71 708.64 222.21 711.14 222.21"/><line class="cls-11" x1="716.13" y1="222.21" x2="793.37" y2="222.21"/><polyline class="cls-2" points="795.86 222.21 798.36 222.21 798.36 219.71"/><line class="cls-12" x1="798.36" y1="214.73" x2="798.36" y2="137.48"/><polyline class="cls-2" points="798.36 134.99 798.36 132.49 795.86 132.49"/><line class="cls-11" x1="790.88" y1="132.49" x2="713.63" y2="132.49"/><polyline class="cls-2" points="711.14 132.49 708.64 132.49 708.64 134.99"/><line class="cls-12" x1="708.64" y1="139.97" x2="708.64" y2="217.22"/><rect class="cls-4" x="708.64" y="28.93" width="58.35" height="58.35"/><polyline class="cls-5" points="708.64 84.78 708.64 87.28 711.14 87.28"/><line class="cls-13" x1="716.05" y1="87.28" x2="733.22" y2="87.28"/><polyline class="cls-5" points="735.67 87.28 738.17 87.28 738.17 84.78"/><line class="cls-14" x1="738.17" y1="79.87" x2="738.17" y2="62.7"/><polyline class="cls-5" points="738.17 60.25 738.17 57.75 735.67 57.75"/><line class="cls-13" x1="730.77" y1="57.75" x2="713.6" y2="57.75"/><polyline class="cls-5" points="711.14 57.75 708.64 57.75 708.64 60.25"/><line class="cls-14" x1="708.64" y1="65.16" x2="708.64" y2="82.33"/><rect class="cls-1" x="912.29" y="132.49" width="99.29" height="99.29"/><polyline class="cls-2" points="912.29 221.12 912.29 223.62 914.79 223.62"/><line class="cls-15" x1="919.86" y1="223.62" x2="998.39" y2="223.62"/><polyline class="cls-2" points="1000.92 223.62 1003.42 223.62 1003.42 221.12"/><line class="cls-15" x1="1003.42" y1="216.05" x2="1003.42" y2="137.52"/><polyline class="cls-2" points="1003.42 134.99 1003.42 132.49 1000.92 132.49"/><line class="cls-15" x1="995.85" y1="132.49" x2="917.32" y2="132.49"/><polyline class="cls-2" points="914.79 132.49 912.29 132.49 912.29 134.99"/><line class="cls-15" x1="912.29" y1="140.06" x2="912.29" y2="218.59"/><rect class="cls-4" x="912.29" y="40.59" width="46.69" height="46.69"/><polyline class="cls-5" points="912.29 84.78 912.29 87.28 914.79 87.28"/><line class="cls-16" x1="921" y1="87.28" x2="930.31" y2="87.28"/><polyline class="cls-5" points="933.42 87.28 935.92 87.28 935.92 84.78"/><line class="cls-16" x1="935.92" y1="78.57" x2="935.92" y2="69.26"/><polyline class="cls-5" points="935.92 66.15 935.92 63.65 933.42 63.65"/><line class="cls-16" x1="927.21" y1="63.65" x2="917.89" y2="63.65"/><polyline class="cls-5" points="914.79 63.65 912.29 63.65 912.29 66.15"/><line class="cls-16" x1="912.29" y1="72.36" x2="912.29" y2="81.67"/><rect class="cls-1" x="1100.76" y="132.49" width="40.49" height="40.49"/><polyline class="cls-2" points="1100.76 173.19 1100.76 175.69 1103.26 175.69"/><line class="cls-17" x1="1108.71" y1="175.69" x2="1138.73" y2="175.69"/><polyline class="cls-2" points="1141.46 175.69 1143.96 175.69 1143.96 173.19"/><line class="cls-18" x1="1143.96" y1="167.73" x2="1143.96" y2="137.72"/><polyline class="cls-2" points="1143.96 134.99 1143.96 132.49 1141.46 132.49"/><line class="cls-17" x1="1136" y1="132.49" x2="1105.99" y2="132.49"/><polyline class="cls-2" points="1103.26 132.49 1100.76 132.49 1100.76 134.99"/><line class="cls-18" x1="1100.76" y1="140.45" x2="1100.76" y2="170.46"/><rect class="cls-4" x="1100.76" y="64.98" width="22.3" height="22.3"/><polyline class="cls-5" points="1100.76 84.78 1100.76 87.28 1103.26 87.28"/><line class="cls-19" x1="1106.02" y1="87.28" x2="1110.17" y2="87.28"/><polyline class="cls-5" points="1111.56 87.28 1114.06 87.28 1114.06 84.78"/><line class="cls-20" x1="1114.06" y1="82.01" x2="1114.06" y2="77.86"/><polyline class="cls-5" points="1114.06 76.48 1114.06 73.98 1111.56 73.98"/><line class="cls-19" x1="1108.79" y1="73.98" x2="1104.64" y2="73.98"/><polyline class="cls-5" points="1103.26 73.98 1100.76 73.98 1100.76 76.48"/><line class="cls-20" x1="1100.76" y1="79.25" x2="1100.76" y2="83.4"/></g><g id="Layer_2" data-name="Layer 2"><path class="cls-21" d="M83.16,104.12c69.84,0,109.84-20,171.37-20" transform="translate(-49.25 -50)"/><g class="cls-22"><path class="cls-23" d="M251.53,59.22v75.06H98.64V94.62c35-.5,59.29-9.77,82.84-18.74,21.75-8.28,42.34-16.13,70-16.66m3-3c-61.53,0-89,35.45-158.89,35.45v45.64H254.53V56.19Z" transform="translate(-49.25 -50)"/></g><g class="cls-22"><path class="cls-24" d="M251.53,185.49V328.38c-15.72-1.52-28.67-14.84-43.53-30.11C187.34,277,164,253,125.29,251.83V185.49H251.53m3-3H122.29v72.29c69.71,0,90.21,76.74,132.24,76.74v-149Z" transform="translate(-49.25 -50)"/></g><g class="cls-22"><path class="cls-24" d="M513.46,185.49V331.71c-23.92-.06-40.77-.88-57.09-1.66-15.46-.75-30.11-1.45-49.81-1.52v-143H513.46m3-3H403.56v149c43.72,0,63.28,3.19,112.91,3.19V182.49Z" transform="translate(-49.25 -50)"/></g><g class="cls-22"><path class="cls-24" d="M754.89,185.49V294c-19.56.92-33.16,10.75-46.34,20.27C697,322.68,686,330.62,671.71,331.61V185.49h83.18m3-3H668.71V334.71c34.53,0,50-37.75,89.18-37.75V182.49Z" transform="translate(-49.25 -50)"/></g><g class="cls-22"><path class="cls-24" d="M958.54,185.49v93.32c-19,.37-32.44,4.27-45.42,8-11.8,3.43-23,6.68-37.76,7.07V185.49h83.18m3-3H872.36V297c34.53,0,50-15.18,89.18-15.18V182.49Z" transform="translate(-49.25 -50)"/></g><g class="cls-22"><path class="cls-24" d="M1147,185.49v34.6c-19.92,1.42-33.59,16.8-46.82,31.7-11.52,13-22.44,25.26-36.36,26.83V185.49H1147m3-3h-89.18v99.29c34.53,0,50-58.8,89.18-58.8V182.49Z" transform="translate(-49.25 -50)"/></g><g class="cls-22"><path class="cls-23" d="M513.49,53v81.28H338.62V59.19c39.48-.08,67-1.69,93.68-3.24,25.13-1.47,48.91-2.86,81.2-2.94m3-3c-70,0-101.37,6.19-180.88,6.19v81.09H516.49V50Z" transform="translate(-49.25 -50)"/></g><g class="cls-22"><path class="cls-23" d="M606.78,53c32.87.43,56,7.83,78.31,15,21.57,6.91,42,13.46,69.81,13.9v52.37H606.78V53m-3-3v87.28H757.89V78.93C698.21,78.93,671.52,50,603.78,50Z" transform="translate(-49.25 -50)"/></g><g class="cls-22"><path class="cls-23" d="M819.24,81.94c31.13.18,53,3.17,74.11,6.07,20.18,2.76,39.28,5.38,65.18,5.57v40.7H819.24V81.94m-3-3v58.35h145.3V90.59c-56.26,0-81.43-11.66-145.3-11.66Z" transform="translate(-49.25 -50)"/></g><g class="cls-22"><path class="cls-23" d="M1011.23,93.61c30.11.39,51.29,6.61,71.8,12.63,19.78,5.81,38.51,11.31,64,11.71v16.32H1011.23V93.61m-3-3v46.69H1150V115c-54.9,0-79.46-24.39-141.78-24.39Z" transform="translate(-49.25 -50)"/></g><path class="cls-25" d="M165.35,297.84c47.15,0,48.65,57.44,89.18,57.44" transform="translate(-49.25 -50)"/><path class="cls-25" d="M427.32,355.28c47.35,0,53.35-41.49,89.18-41.49" transform="translate(-49.25 -50)"/><path class="cls-25" d="M647.8,313.79c69.84,0,48.57-41.58,110.1-41.58" transform="translate(-49.25 -50)"/><path class="cls-25" d="M847.61,272.21c69.84,0,52.4,1.41,113.93,1.41" transform="translate(-49.25 -50)"/><path class="cls-25" d="M1052.67,273.62c69.84,0,35.81-47.93,97.34-47.93" transform="translate(-49.25 -50)"/><path class="cls-21" d="M307.66,84.15c69.84,0,147.31,1.07,208.84,1.07" transform="translate(-49.25 -50)"/><path class="cls-21" d="M568.56,85.22c69.84,0,127.81,22.53,189.34,22.53" transform="translate(-49.25 -50)"/><path class="cls-21" d="M787.42,107.75c69.84,0,112.59,5.9,174.12,5.9" transform="translate(-49.25 -50)"/><path class="cls-21" d="M984.88,113.65c69.84,0,103.6,10.33,165.12,10.33" transform="translate(-49.25 -50)"/><line class="cls-21" x1="33.91" y1="87.28" x2="1100.76" y2="87.28"/><line class="cls-25" x1="116.1" y1="132.49" x2="205.28" y2="132.49"/><line class="cls-25" x1="378.07" y1="132.49" x2="467.25" y2="132.49"/><line class="cls-25" x1="598.55" y1="132.49" x2="708.64" y2="132.49"/><line class="cls-25" x1="798.36" y1="132.49" x2="912.29" y2="132.49"/><line class="cls-25" x1="993.48" y1="132.49" x2="1107.41" y2="132.49"/></g></svg>